<?xml version="1.0" encoding="utf-8"?>
<!-- Generator: Adobe Illustrator 24.0.3, SVG Export Plug-In . SVG Version: 6.00 Build 0)  -->
<svg version="1.1" id="Слой_1" xmlns="http://www.w3.org/2000/svg" xmlns:xlink="http://www.w3.org/1999/xlink" x="0px" y="0px"
	 viewBox="0 0 450 450" style="enable-background:new 0 0 450 450;" xml:space="preserve">
<style type="text/css">
	.st0{fill:#FFFFFF;}
	.st1{clip-path:url(#SVGID_2_);fill:#EF2B2D;}
	.st2{clip-path:url(#SVGID_4_);fill:#EF2B2D;}
	.st3{clip-path:url(#SVGID_6_);fill:#EF2B2D;}
	.st4{clip-path:url(#SVGID_8_);fill:#EF2B2D;}
	.st5{clip-path:url(#SVGID_10_);fill:#002868;}
	.st6{clip-path:url(#SVGID_12_);fill:#002868;}
	.st7{clip-path:url(#SVGID_14_);fill:#FFFFFF;}
	.st8{clip-path:url(#SVGID_14_);fill:#1F34B8;}
	.st9{clip-path:url(#SVGID_14_);fill:#FFFF00;}
	.st10{clip-path:url(#SVGID_16_);fill:#FFFFFF;}
	.st11{clip-path:url(#SVGID_16_);fill:#FF0000;}
</style>
<circle class="st0" cx="318.5" cy="196.5" r="96.5"/>
<g id="norway">
	<circle class="st0" cx="318.5" cy="196.5" r="81.5"/>
	<g>
		<defs>
			<circle id="SVGID_1_" cx="318.5" cy="196.5" r="81.16"/>
		</defs>
		<clipPath id="SVGID_2_">
			<use xlink:href="#SVGID_1_"  style="overflow:visible;"/>
		</clipPath>
		<rect x="307.64" y="106.39" class="st1" width="131.65" height="74.13"/>
	</g>
	<g>
		<defs>
			<circle id="SVGID_3_" cx="318.5" cy="196.5" r="81.16"/>
		</defs>
		<clipPath id="SVGID_4_">
			<use xlink:href="#SVGID_3_"  style="overflow:visible;"/>
		</clipPath>
		<rect x="307.64" y="211.2" class="st2" width="131.65" height="93.3"/>
	</g>
	<g>
		<defs>
			<circle id="SVGID_5_" cx="318.5" cy="196.5" r="81.16"/>
		</defs>
		<clipPath id="SVGID_6_">
			<use xlink:href="#SVGID_5_"  style="overflow:visible;"/>
		</clipPath>
		<rect x="196.44" y="114.06" class="st3" width="65.19" height="66.46"/>
	</g>
	<g>
		<defs>
			<circle id="SVGID_7_" cx="318.5" cy="196.5" r="81.16"/>
		</defs>
		<clipPath id="SVGID_8_">
			<use xlink:href="#SVGID_7_"  style="overflow:visible;"/>
		</clipPath>
		<rect x="196.44" y="211.2" class="st4" width="65.19" height="66.46"/>
	</g>
	<g>
		<defs>
			<circle id="SVGID_9_" cx="318.5" cy="196.5" r="81.16"/>
		</defs>
		<clipPath id="SVGID_10_">
			<use xlink:href="#SVGID_9_"  style="overflow:visible;"/>
		</clipPath>
		<rect x="196.44" y="188.19" class="st5" width="242.85" height="16.62"/>
	</g>
	<g>
		<defs>
			<circle id="SVGID_11_" cx="318.5" cy="196.5" r="81.16"/>
		</defs>
		<clipPath id="SVGID_12_">
			<use xlink:href="#SVGID_11_"  style="overflow:visible;"/>
		</clipPath>
		<rect x="273.13" y="93.61" class="st6" width="21.73" height="205.78"/>
	</g>
</g>
<circle class="st0" cx="109" cy="316" r="91"/>
<g id="sweden">
	<defs>
		<circle id="SVGID_13_" cx="109" cy="316" r="76.54"/>
	</defs>
	<clipPath id="SVGID_14_">
		<use xlink:href="#SVGID_13_"  style="overflow:visible;"/>
	</clipPath>
	<circle class="st7" cx="109" cy="316" r="84.97"/>
	<rect x="95.14" y="229.82" class="st8" width="115.71" height="73.52"/>
	<rect x="95.14" y="327.45" class="st8" width="115.71" height="73.52"/>
	<rect x="-44.68" y="327.45" class="st8" width="115.71" height="73.52"/>
	<rect x="-44.68" y="229.82" class="st8" width="115.71" height="73.52"/>
	<rect x="71.03" y="216.56" class="st9" width="24.11" height="182"/>
	<rect x="10.77" y="303.34" class="st9" width="185.62" height="24.11"/>
</g>
<circle class="st0" cx="109" cy="105" r="91"/>
<g id="denmark">
	<defs>
		<circle id="SVGID_15_" cx="109" cy="105" r="76.54"/>
	</defs>
	<clipPath id="SVGID_16_">
		<use xlink:href="#SVGID_15_"  style="overflow:visible;"/>
	</clipPath>
	<circle class="st10" cx="109" cy="105" r="84.97"/>
	<rect x="99.96" y="21.23" class="st11" width="115.71" height="73.52"/>
	<rect x="99.96" y="118.86" class="st11" width="115.71" height="73.52"/>
	<rect x="-39.85" y="118.86" class="st11" width="115.71" height="73.52"/>
	<rect x="-39.85" y="21.23" class="st11" width="115.71" height="73.52"/>
</g>
</svg>
